<?xml version="1.0" encoding="UTF-8" standalone="no"?> <svg width="52" height="52" viewBox="0 0 512 512" fill="none" xmlns="http://www.w3.org/2000/svg">
<path d="M394.666 448C320 448 288 394.673 288 394.673L341.333 288C341.333 245.333 298.666 224 298.666 224L288 181.333L352 149.333H437.334L501.334 181.333L490.666 224C490.666 224 448 245.333 448 288L501.333 384C501.333 384 469.333 448 394.666 448Z" fill="#FD3730"/>
<path d="M352.001 149.333C351.973 154.953 353.057 160.524 355.189 165.724C357.321 170.925 360.459 175.653 364.424 179.637C368.389 183.62 373.101 186.782 378.291 188.939C383.481 191.096 389.047 192.207 394.667 192.207C400.287 192.207 405.853 191.096 411.043 188.939C416.233 186.782 420.945 183.62 424.91 179.637C428.875 175.653 432.013 170.925 434.145 165.724C436.277 160.524 437.361 154.953 437.334 149.333H352.001Z" fill="#D3241F"/>
<path d="M287.999 448V245.333L352 362.667L394.666 341.334L298.666 160L245.333 149.334L202.666 149.333L160 149.334L106.666 160L10.666 341.334L53.333 362.667L117.333 245.333V448H287.999Z" fill="#2D4A60"/>
<path d="M245.333 149.334L266.666 181.333L245.333 202.667L266.666 224L202.666 288L138.666 224L160 202.667L138.666 181.333L160 149.334H245.333Z" fill="#263F52"/>
<path d="M173.777 149.334L202.666 288L231.555 149.334H173.777Z" fill="#EAEFF0"/>
<path d="M42.665 117.333C54.4469 117.333 63.998 107.782 63.998 96C63.998 84.2181 54.4469 74.667 42.665 74.667C30.8831 74.667 21.332 84.2181 21.332 96C21.332 107.782 30.8831 117.333 42.665 117.333Z" fill="#BAC2C6"/>
<path d="M469.335 117.333C481.117 117.333 490.668 107.782 490.668 96C490.668 84.2181 481.117 74.667 469.335 74.667C457.553 74.667 448.002 84.2181 448.002 96C448.002 107.782 457.553 117.333 469.335 117.333Z" fill="#BAC2C6"/>
<path d="M510.658 378.82L458.735 285.358C460.481 251.685 495.108 233.708 495.435 233.54C496.811 232.852 498.022 231.874 498.985 230.674C499.948 229.473 500.64 228.079 501.013 226.586L511.68 183.92C512.268 181.565 512.037 179.081 511.023 176.875C510.008 174.67 508.273 172.877 506.102 171.792L442.102 139.792C440.621 139.051 438.988 138.666 437.332 138.666H405.332V106.666H439.301C441.817 113.783 446.768 119.781 453.279 123.601C459.79 127.42 467.442 128.815 474.882 127.539C482.322 126.262 489.071 122.397 493.936 116.625C498.802 110.854 501.471 103.548 501.471 95.9995C501.471 88.4508 498.802 81.1452 493.936 75.3738C489.071 69.6024 482.322 65.7368 474.882 64.4603C467.442 63.1839 459.79 64.5786 453.279 68.3982C446.768 72.2177 441.817 78.216 439.301 85.333H405.334C405.334 76.8461 401.962 68.7068 395.961 62.7056C389.96 56.7044 381.821 53.333 373.334 53.333C364.847 53.333 356.707 56.7044 350.706 62.7056C344.705 68.7068 341.334 76.8461 341.334 85.333H213.334C213.334 76.8461 209.962 68.7068 203.961 62.7056C197.96 56.7044 189.821 53.333 181.334 53.333C172.847 53.333 164.707 56.7044 158.706 62.7056C152.705 68.7068 149.334 76.8461 149.334 85.333H72.7007C70.1845 78.216 65.2333 72.2177 58.7223 68.3982C52.2112 64.5786 44.5595 63.1839 37.1195 64.4603C29.6796 65.7368 22.9304 69.6024 18.0648 75.3738C13.1993 81.1452 10.5307 88.4508 10.5307 95.9995C10.5307 103.548 13.1993 110.854 18.0648 116.625C22.9304 122.397 29.6796 126.262 37.1195 127.539C44.5595 128.815 52.2112 127.42 58.7223 123.601C65.2333 119.781 70.1845 113.783 72.7007 106.666H192.001V138.666H160.001C159.298 138.666 158.597 138.735 157.909 138.873L104.576 149.54C103.024 149.85 101.561 150.502 100.292 151.448C99.0232 152.394 97.9809 153.61 97.2407 155.009L1.24066 336.342C0.575693 337.599 0.168634 338.976 0.0434114 340.392C-0.0818117 341.808 0.0773274 343.235 0.511475 344.589C0.945624 345.943 1.64602 347.196 2.5715 348.276C3.49699 349.355 4.62888 350.238 5.90066 350.874L48.5677 372.207C51.039 373.442 53.8932 373.67 56.5294 372.843C59.1655 372.016 61.3779 370.199 62.7007 367.773L106.67 287.164V448C106.67 450.829 107.794 453.542 109.794 455.543C111.794 457.543 114.508 458.667 117.337 458.667H288.001C290.83 458.667 293.542 457.543 295.543 455.542C297.543 453.542 298.667 450.829 298.667 448V287.164L342.636 367.773C343.959 370.199 346.171 372.017 348.808 372.844C351.444 373.671 354.299 373.443 356.771 372.207L399.438 350.874C400.709 350.238 401.841 349.355 402.766 348.275C403.691 347.196 404.391 345.943 404.825 344.589C405.259 343.235 405.418 341.808 405.292 340.392C405.167 338.976 404.76 337.599 404.095 336.343L308.095 155.01C307.354 153.611 306.312 152.395 305.043 151.449C303.775 150.503 302.311 149.851 300.76 149.541L247.427 138.874C246.738 138.736 246.038 138.667 245.336 138.667H213.336V106.667H384.001V138.667H352.001C350.345 138.667 348.712 139.052 347.231 139.793L336.564 145.126C334.033 146.391 332.109 148.61 331.214 151.293C330.32 153.977 330.528 156.907 331.793 159.437C332.889 161.583 334.689 163.287 336.892 164.265C339.094 165.242 341.566 165.433 343.893 164.806C347.137 175.706 353.804 185.273 362.906 192.091C372.009 198.909 383.063 202.617 394.436 202.666C405.809 202.715 416.895 199.103 426.056 192.363C435.217 185.624 441.966 176.116 445.305 165.244L488.905 187.044L481.421 216.978C470.459 223.649 443.133 243.516 438.181 277.33H410.661C409.251 277.316 407.853 277.582 406.547 278.112C405.241 278.642 404.053 279.426 403.051 280.417C402.05 281.409 401.255 282.59 400.712 283.891C400.17 285.191 399.89 286.587 399.89 287.996C399.89 289.406 400.17 290.802 400.712 292.102C401.255 293.403 402.05 294.584 403.051 295.576C404.053 296.567 405.241 297.351 406.547 297.881C407.853 298.411 409.251 298.677 410.661 298.663H441.719L489.061 383.879C483.224 393.028 476.205 401.367 468.186 408.679C447.327 427.687 422.586 437.325 394.661 437.325C372.97 437.325 353.035 432.88 335.409 424.113C332.881 422.897 329.977 422.726 327.324 423.636C324.671 424.546 322.483 426.464 321.234 428.975C319.985 431.487 319.775 434.389 320.65 437.053C321.525 439.718 323.414 441.931 325.909 443.213C346.509 453.46 369.645 458.656 394.661 458.656C427.919 458.656 458.545 446.612 483.23 423.827C501.783 406.701 510.506 389.484 510.868 388.759C511.643 387.21 512.029 385.495 511.992 383.764C511.955 382.032 511.497 380.335 510.658 378.82V378.82ZM469.334 85.333C471.443 85.333 473.506 85.9586 475.26 87.1307C477.014 88.3028 478.381 89.9688 479.189 91.9179C479.996 93.8671 480.207 96.0118 479.796 98.081C479.384 100.15 478.368 102.051 476.876 103.543C475.385 105.035 473.484 106.05 471.415 106.462C469.346 106.874 467.201 106.662 465.252 105.855C463.302 105.048 461.636 103.68 460.464 101.926C459.292 100.172 458.667 98.1097 458.667 96C458.67 93.1719 459.795 90.4606 461.794 88.4608C463.794 86.461 466.506 85.3362 469.334 85.333ZM42.6677 106.667C40.5579 106.667 38.4954 106.042 36.7411 104.87C34.9868 103.698 33.6194 102.032 32.8119 100.083C32.0044 98.1337 31.793 95.9889 32.2045 93.9196C32.616 91.8503 33.6318 89.9496 35.1236 88.4577C36.6154 86.9658 38.516 85.9497 40.5853 85.538C42.6545 85.1264 44.7993 85.3376 46.7485 86.1449C48.6977 86.9522 50.3637 88.3194 51.5359 90.0736C52.708 91.8278 53.3337 93.8902 53.3337 96C53.3308 98.828 52.2061 101.539 50.2065 103.539C48.2069 105.539 45.4957 106.664 42.6677 106.667V106.667ZM237.791 210.209L251.582 224L220.401 255.182L239.778 162.175C239.843 161.533 239.847 160.886 239.79 160.243L252.942 179.973L237.792 195.123C236.801 196.113 236.015 197.289 235.479 198.584C234.943 199.878 234.667 201.265 234.667 202.666C234.666 204.067 234.942 205.454 235.478 206.748C236.014 208.042 236.8 209.218 237.791 210.209V210.209ZM167.543 195.124L152.393 179.974L165.546 160.244C165.488 160.887 165.492 161.534 165.558 162.176L184.934 255.182L153.753 224L167.543 210.209C168.533 209.219 169.319 208.043 169.855 206.749C170.391 205.454 170.667 204.067 170.667 202.667C170.667 201.266 170.391 199.879 169.855 198.584C169.319 197.29 168.533 196.114 167.543 195.124V195.124ZM186.901 160H218.443L202.672 235.7L186.901 160ZM128.001 437.333V245.333C128 242.963 127.211 240.66 125.757 238.789C124.302 236.917 122.266 235.583 119.969 234.998C117.673 234.412 115.246 234.608 113.074 235.554C110.901 236.501 109.105 238.144 107.97 240.225L48.9007 348.523L25.2007 336.674L113.722 169.466L136.839 164.843L129.79 175.417C128.422 177.469 127.807 179.931 128.05 182.385C128.293 184.839 129.378 187.133 131.122 188.877L144.913 202.667L131.122 216.457C129.121 218.457 127.998 221.171 127.998 224C127.998 226.828 129.121 229.542 131.122 231.542L192.001 292.419V437.333H128.001ZM380.132 336.674L356.432 348.522L297.361 240.222C296.225 238.141 294.43 236.498 292.257 235.551C290.084 234.605 287.658 234.409 285.361 234.995C283.064 235.58 281.028 236.914 279.574 238.786C278.119 240.657 277.33 242.96 277.33 245.33V437.33H213.33V292.418L274.206 231.542C275.196 230.552 275.982 229.376 276.518 228.082C277.054 226.787 277.33 225.4 277.33 224C277.33 222.599 277.054 221.212 276.518 219.917C275.982 218.623 275.196 217.447 274.206 216.457L260.416 202.667L274.206 188.877C275.949 187.133 277.035 184.839 277.278 182.385C277.521 179.931 276.906 177.469 275.539 175.417L268.49 164.843L291.606 169.466L380.132 336.674ZM170.668 85.333C170.695 82.522 171.831 79.8353 173.828 77.8572C175.825 75.879 178.523 74.7693 181.334 74.7693C184.145 74.7693 186.843 75.879 188.84 77.8572C190.838 79.8353 191.973 82.522 192.001 85.333H170.668ZM362.668 85.333C362.654 83.9236 362.92 82.5254 363.45 81.2193C363.98 79.9132 364.763 78.7251 365.755 77.7236C366.747 76.7221 367.927 75.9272 369.228 75.3846C370.529 74.8421 371.925 74.5627 373.334 74.5627C374.744 74.5627 376.139 74.8421 377.44 75.3846C378.741 75.9272 379.921 76.7221 380.913 77.7236C381.905 78.7251 382.689 79.9132 383.219 81.2193C383.748 82.5254 384.014 83.9236 384.001 85.333H362.668ZM394.668 181.333C388.072 181.312 381.644 179.251 376.266 175.431C370.888 171.612 366.825 166.221 364.633 160H424.701C422.509 166.221 418.445 171.611 413.068 175.431C407.69 179.251 401.263 181.312 394.667 181.333H394.668Z" fill="black"/>
</svg>
